custom-analysis
version=1
nRows=12
nColumns=42
inDegrees=no

This file contains tibia displacement and acting force.

Units are S.I. units (seconds, meters, Newtons, ...)
Angles are in degrees.

endheader
time	APT	SIT	knee_angle	aACL_R_force	pACL_R_force	aPCL_R_force	pPCL_R_force	aMCL_R_force	mMCL_R_force	pMCL_R_force	aLCL_R_force	mLCL_R_force	pLCL_R_force	aACL_R_length	pACL_R_length	aPCL_R_length	pPCL_R_length	aMCL_R_length	mMCL_R_length	pMCL_R_length	aLCL_R_length	mLCL_R_length	pLCL_R_length	aACL_R_strain	pACL_R_strain	aPCL_R_strain	pPCL_R_strain	aMCL_R_strain	mMCL_R_strain	pMCL_R_strain	aLCL_R_strain	mLCL_R_strain	pLCL_R_strain	femur_lat_meniscii_force_r	femur_lat_meniscii_torque_r	femur_med_meniscii_force_r	femur_med_meniscii_torque_r	femur_lat_tibia_force_r	femur_lat_tibia_torque_r	femur_med_tibia_force_r	femur_med_tibia_torque_r
      0.48169461	      0.00189884	      0.00015294	      1.66574369	     22.38776968	     49.74349256	      0.00000000	      0.00000000	      0.00000000	      3.07960251	     15.31383956	      0.54314042	      0.00000000	      1.38878904	      0.03342680	      0.02772460	      0.02832464	      0.02881644	      0.05617689	      0.06107127	      0.06346449	      0.05631047	      0.05483908	      0.05302432	      0.05429019	      0.07215751	     -0.08910235	     -0.04225508	     -0.03188353	      0.02136969	      0.04506140	      0.00595373	     -0.02627061	      0.01302221	     85.32466269	     15.60202689	     83.27211411	     16.53624535	      0.00000000	      0.00000000	      0.00000000	      0.00000000
      0.48318564	      0.00190038	      0.00015282	      1.66574369	     22.28885238	     49.65628510	      0.00000000	      0.00000000	      0.00000000	      2.90401690	     15.13903785	      0.40057691	      0.00000000	      1.24555876	      0.03342762	      0.02772537	      0.02832414	      0.02881599	      0.05617676	      0.06107113	      0.06346445	      0.05631087	      0.05483955	      0.05302482	      0.05431599	      0.07218722	     -0.08911819	     -0.04226992	     -0.03188579	      0.02136732	      0.04506076	      0.00596083	     -0.02626220	      0.01303173	     85.33014601	     15.56650052	     83.41876213	     16.56234060	      0.00000000	      0.00000000	      0.00000000	      0.00000000
      0.48935684	      0.00190628	      0.00015267	      1.66574369	     22.10840509	     49.49726480	      0.00000000	      0.00000000	      0.00000000	      2.50375036	     14.74026377	      0.19581392	      0.00000000	      1.04511993	      0.03342947	      0.02772686	      0.02832302	      0.02881489	      0.05617594	      0.06107018	      0.06346393	      0.05631347	      0.05484246	      0.05302784	      0.05437435	      0.07224483	     -0.08915444	     -0.04230667	     -0.03190000	      0.02135142	      0.04505213	      0.00600718	     -0.02621049	      0.01308945	     85.35194695	     15.59956809	     84.02544575	     16.67101637	      0.00000000	      0.00000000	      0.00000000	      0.00000000
      0.49012275	      0.00190696	      0.00015298	      1.66574369	     22.16436719	     49.55020052	      0.00000000	      0.00000000	      0.00000000	      2.64258462	     14.87565467	      0.41603890	      0.00000000	      1.26706430	      0.03342940	      0.02772676	      0.02832264	      0.02881449	      0.05617548	      0.06106969	      0.06346350	      0.05631355	      0.05484259	      0.05302798	      0.05437226	      0.07224087	     -0.08916659	     -0.04231984	     -0.03190799	      0.02134336	      0.04504511	      0.00600875	     -0.02620826	      0.01309211	     85.33717821	     15.60032491	     84.10243426	     16.68501311	      0.00000000	      0.00000000	      0.00000000	      0.00000000
      0.49395227	      0.00190998	      0.00015359	      1.66574369	     22.30063151	     49.69596087	      0.00000000	      0.00000000	      0.00000000	      2.87816268	     15.10075450	      0.92298857	      0.00000000	      1.77928550	      0.03342971	      0.02772690	      0.02832174	      0.02881349	      0.05617387	      0.06106802	      0.06346209	      0.05631523	      0.05484445	      0.05302991	      0.05438191	      0.07224650	     -0.08919552	     -0.04235305	     -0.03193563	      0.02131529	      0.04502187	      0.00603867	     -0.02617516	      0.01312907	     85.22815891	     15.59350995	     84.45605792	     16.74884197	      0.00000000	      0.00000000	      0.00000000	      0.00000000
      0.49495440	      0.00191066	      0.00015351	      1.66574369	     22.27765010	     49.68087119	      0.00000000	      0.00000000	      0.00000000	      2.78088794	     15.00303228	      0.84926117	      0.00000000	      1.70628678	      0.03342996	      0.02772713	      0.02832173	      0.02881345	      0.05617360	      0.06106774	      0.06346188	      0.05631596	      0.05484524	      0.05303071	      0.05439005	      0.07225530	     -0.08919584	     -0.04235432	     -0.03194023	      0.02131061	      0.04501839	      0.00605180	     -0.02616123	      0.01314443	     84.64626938	     15.33460813	     84.55140682	     16.76583044	      0.00000000	      0.00000000	      0.00000000	      0.00000000
      0.49805488	      0.00191303	      0.00015360	      1.66574369	     22.34724318	     49.78136312	      0.00000000	      0.00000000	      0.00000000	      2.65515591	     14.88095291	      0.75729893	      0.00000000	      1.62800512	      0.03343086	      0.02772797	      0.02832114	      0.02881279	      0.05617230	      0.06106640	      0.06346078	      0.05631792	      0.05484736	      0.05303290	      0.05441836	      0.07228800	     -0.08921463	     -0.04237636	     -0.03196275	      0.02128834	      0.04500032	      0.00608675	     -0.02612352	      0.01318620	     84.58496922	     15.33650698	     84.88668199	     16.83098226	      0.00000000	      0.00000000	      0.00000000	      0.00000000
      0.50497730	      0.00191914	      0.00015347	      1.66574369	     22.40052867	     49.94945856	      0.00000000	      0.00000000	      0.00000000	      2.31284901	     14.53275092	      0.61083164	      0.00000000	      1.49912422	      0.03343448	      0.02773165	      0.02831908	      0.02881060	      0.05616875	      0.06106288	      0.06345787	      0.05632284	      0.05485272	      0.05303842	      0.05453249	      0.07243033	     -0.08928091	     -0.04244901	     -0.03202384	      0.02122947	      0.04495249	      0.00617460	     -0.02602841	      0.01329162	     84.38331340	     15.32430086	     85.63292272	     16.95940167	      0.00000000	      0.00000000	      0.00000000	      0.00000000
      0.50594971	      0.00191998	      0.00015370	      1.66574369	     22.47690430	     50.03946557	      0.00000000	      0.00000000	      0.00000000	      2.43883787	     14.65444870	      0.81762734	      0.00000000	      1.70932595	      0.03343483	      0.02773203	      0.02831858	      0.02881006	      0.05616793	      0.06106207	      0.06345715	      0.05632338	      0.05485332	      0.05303905	      0.05454358	      0.07244495	     -0.08929723	     -0.04246697	     -0.03203798	      0.02121585	      0.04494060	      0.00618431	     -0.02601765	      0.01330366	     84.33232175	     15.31993748	     85.69008638	     16.96752489	      0.00000000	      0.00000000	      0.00000000	      0.00000000
      0.50785629	      0.00192156	      0.00015385	      1.66574369	     22.54466430	     50.13972599	      0.00000000	      0.00000000	      0.00000000	      2.49392776	     14.70293116	      0.98369760	      0.00000000	      1.87997624	      0.03343575	      0.02773301	      0.02831784	      0.02880927	      0.05616653	      0.06106069	      0.06345595	      0.05632480	      0.05485487	      0.05304064	      0.05457261	      0.07248282	     -0.08932081	     -0.04249344	     -0.03206208	      0.02119276	      0.04492085	      0.00620967	     -0.02599021	      0.01333409	     84.23621152	     15.31092599	     85.90364570	     17.00716672	      0.00000000	      0.00000000	      0.00000000	      0.00000000
      0.51227051	      0.00192480	      0.00015397	      1.66574369	     22.57679067	     50.24949933	      0.00000000	      0.00000000	      0.00000000	      2.38390617	     14.57667351	      1.08188942	      0.00000000	      1.98549607	      0.03343801	      0.02773546	      0.02831649	      0.02880773	      0.05616320	      0.06105741	      0.06345310	      0.05632873	      0.05485909	      0.05304497	      0.05464381	      0.07257733	     -0.08936418	     -0.04254449	     -0.03211957	      0.02113795	      0.04487380	      0.00627981	     -0.02591533	      0.01341684	     84.00037100	     15.28171388	     86.37433455	     17.08809307	      0.00000000	      0.00000000	      0.00000000	      0.00000000
      0.51888714	      0.00192854	      0.00015532	      1.66574369	     22.87976728	     50.64429030	      0.00000000	      0.00000000	      0.00000000	      2.86671738	     15.02046707	      2.02217244	      0.00000000	      2.94408259	      0.03344014	      0.02773801	      0.02831400	      0.02880478	      0.05615632	      0.06105064	      0.06344696	      0.05633458	      0.05486536	      0.05305142	      0.05471111	      0.07267615	     -0.08944435	     -0.04264250	     -0.03223812	      0.02102475	      0.04477272	      0.00638440	     -0.02580390	      0.01354002	     83.51223897	     15.21017525	     87.13148750	     17.19570305	      0.00000000	      0.00000000	      0.00000000	      0.00000000
